<svg width="20" height="20" viewBox="0 0 20 20" fill="none" xmlns="http://www.w3.org/2000/svg">
<g clip-path="url(#clip0_1_1468)">
<path d="M9.99588 18.3257C14.5963 18.3257 18.3257 14.5963 18.3257 9.99588C18.3257 5.39542 14.5963 1.66602 9.99588 1.66602C5.39542 1.66602 1.66602 5.39542 1.66602 9.99588C1.66602 14.5963 5.39542 18.3257 9.99588 18.3257Z" stroke="#364153" stroke-width="1.66597" stroke-linecap="round" stroke-linejoin="round"/>
<path d="M7.57178 7.49685C7.76762 6.94014 8.15416 6.4707 8.66295 6.17168C9.17174 5.87266 9.76994 5.76335 10.3516 5.86312C10.9333 5.96289 11.4608 6.2653 11.8409 6.71678C12.221 7.16826 12.429 7.73968 12.4281 8.32984C12.4281 9.99581 9.92913 10.8288 9.92913 10.8288" stroke="#364153" stroke-width="1.66597" stroke-linecap="round" stroke-linejoin="round"/>
<path d="M9.99585 14.1606H10.0042" stroke="#364153" stroke-width="1.66597" stroke-linecap="round" stroke-linejoin="round"/>
</g>
<defs>
<clipPath id="clip0_1_1468">
<rect width="19.9917" height="19.9917" fill="white"/>
</clipPath>
</defs>
</svg>
