<svg width="24" height="24" viewBox="0 0 24 24" fill="none" xmlns="http://www.w3.org/2000/svg">
<path d="M15.9933 9.99561C15.9933 11.056 15.572 12.073 14.8222 12.8229C14.0723 13.5727 13.0553 13.9939 11.9949 13.9939C10.9345 13.9939 9.9175 13.5727 9.16767 12.8229C8.41783 12.073 7.99658 11.056 7.99658 9.99561" stroke="#99A1AF" stroke-width="1.49938" stroke-linecap="round" stroke-linejoin="round"/>
<path d="M3.10181 6.03125H20.8884" stroke="#99A1AF" stroke-width="1.49938" stroke-linecap="round" stroke-linejoin="round"/>
<path d="M3.39861 5.46458C3.13908 5.81063 2.99878 6.23152 2.99878 6.66408V19.9915C2.99878 20.5217 3.20941 21.0302 3.58432 21.4052C3.95924 21.7801 4.46773 21.9907 4.99795 21.9907H18.9921C19.5223 21.9907 20.0308 21.7801 20.4057 21.4052C20.7807 21.0302 20.9913 20.5217 20.9913 19.9915V6.66408C20.9913 6.23152 20.851 5.81063 20.5915 5.46458L18.5923 2.79869C18.4061 2.5504 18.1646 2.34888 17.887 2.21008C17.6094 2.07128 17.3033 1.99902 16.993 1.99902H6.99711C6.68675 1.99902 6.38065 2.07128 6.10306 2.21008C5.82546 2.34888 5.584 2.5504 5.39778 2.79869L3.39861 5.46458Z" stroke="#99A1AF" stroke-width="1.49938" stroke-linecap="round" stroke-linejoin="round"/>
</svg>
