<svg width="20" height="21" viewBox="0 0 20 21" fill="none" xmlns="http://www.w3.org/2000/svg">
<path d="M0.749756 8.74666C0.749686 8.45585 0.813063 8.16852 0.935466 7.90473C1.05787 7.64093 1.23635 7.40701 1.45846 7.2193L8.45555 1.22179C8.81638 0.91683 9.27356 0.749512 9.74601 0.749512C10.2185 0.749512 10.6756 0.91683 11.0365 1.22179L18.0336 7.2193C18.2557 7.40701 18.4341 7.64093 18.5566 7.90473C18.679 8.16852 18.7423 8.45585 18.7423 8.74666V17.7429C18.7423 18.2731 18.5316 18.7816 18.1567 19.1565C17.7818 19.5315 17.2733 19.7421 16.7431 19.7421H2.74892C2.21871 19.7421 1.71021 19.5315 1.3353 19.1565C0.960382 18.7816 0.749756 18.2731 0.749756 17.7429V8.74666Z" stroke="#8F95A1" stroke-width="1.49938" stroke-linecap="round" stroke-linejoin="round"/>
</svg>
