<svg width="16" height="16" viewBox="0 0 16 16" fill="none" xmlns="http://www.w3.org/2000/svg">
<g clip-path="url(#clip0_37_109)">
<path d="M1.99421 10.8919C2.09221 11.1391 2.11402 11.41 2.05686 11.6697L1.34704 13.8624C1.32417 13.9736 1.33008 14.0888 1.36422 14.1971C1.39836 14.3054 1.45959 14.4031 1.5421 14.4811C1.62462 14.5591 1.72568 14.6147 1.83571 14.6426C1.94574 14.6706 2.0611 14.67 2.17083 14.6409L4.44556 13.9757C4.69064 13.9271 4.94445 13.9484 5.17803 14.037C6.60125 14.7017 8.21348 14.8423 9.73027 14.4341C11.2471 14.0259 12.5709 13.0951 13.4683 11.8059C14.3657 10.5167 14.7789 8.95198 14.6351 7.38782C14.4912 5.82366 13.7996 4.36056 12.6821 3.25667C11.5646 2.15278 10.0932 1.47904 8.52741 1.35431C6.96161 1.22958 5.40206 1.66188 4.12394 2.57495C2.84581 3.48801 1.93124 4.82316 1.54159 6.34482C1.15193 7.86648 1.31223 9.47687 1.99421 10.8919Z" stroke="#4A5565" stroke-width="1.33298" stroke-linecap="round" stroke-linejoin="round"/>
</g>
<defs>
<clipPath id="clip0_37_109">
<rect width="15.9958" height="15.9958" fill="white"/>
</clipPath>
</defs>
</svg>
