<svg width="24" height="24" viewBox="0 0 24 24" fill="none" xmlns="http://www.w3.org/2000/svg">
<g clip-path="url(#clip0_1_6797)">
<path d="M23.9829 12.0644C23.9829 5.44217 18.6137 0.072998 11.9914 0.072998C5.36917 0.072998 0 5.44217 0 12.0644C0 18.0502 4.38487 23.0106 10.1178 23.91V15.531H7.07296V12.0634H10.1178V9.42333C10.1178 6.41847 11.9085 4.75766 14.6476 4.75766C15.9586 4.75766 17.3316 4.99249 17.3316 4.99249V7.94339H15.8187C14.3288 7.94339 13.8641 8.86773 13.8641 9.81605V12.0644H17.1897L16.6581 15.532H13.8641V23.911C19.598 23.0106 23.9829 18.0492 23.9829 12.0644Z" fill="#1877F2"/>
</g>
<defs>
<clipPath id="clip0_1_6797">
<rect width="23.9829" height="23.9829" fill="white"/>
</clipPath>
</defs>
</svg>
