<svg width="24" height="24" viewBox="0 0 24 24" fill="none" xmlns="http://www.w3.org/2000/svg">
<path d="M22.5439 12.2413C22.5439 11.4619 22.474 10.7124 22.3441 9.99292H11.9915V14.2499H17.9072C17.6474 15.6189 16.868 16.7781 15.6988 17.5575V20.3256H19.2663C21.3448 18.4069 22.5439 15.5889 22.5439 12.2413Z" fill="#4285F4"/>
<path d="M11.9915 22.9835C14.9594 22.9835 17.4476 22.0042 19.2663 20.3254L15.6988 17.5574C14.7195 18.2169 13.4704 18.6166 11.9915 18.6166C9.13351 18.6166 6.70524 16.688 5.83586 14.0898H2.17847V16.9278C3.98718 20.5153 7.69453 22.9835 11.9915 22.9835Z" fill="#34A853"/>
<path d="M5.83582 14.0799C5.61598 13.4204 5.48607 12.7209 5.48607 11.9914C5.48607 11.2619 5.61598 10.5624 5.83582 9.90292V7.06494H2.17843C1.42896 8.54389 0.999268 10.2127 0.999268 11.9914C0.999268 13.7702 1.42896 15.439 2.17843 16.9179L5.0264 14.6995L5.83582 14.0799Z" fill="#FBBC05"/>
<path d="M11.9915 5.37615C13.6103 5.37615 15.0493 5.93575 16.1985 7.01498L19.3462 3.86722C17.4376 2.08849 14.9594 0.999268 11.9915 0.999268C7.69453 0.999268 3.98718 3.46751 2.17847 7.06494L5.83586 9.90292C6.70524 7.30477 9.13351 5.37615 11.9915 5.37615Z" fill="#EA4335"/>
</svg>
