<svg width="24" height="24" viewBox="0 0 24 24" fill="none" xmlns="http://www.w3.org/2000/svg">
<path d="M10.2651 20.9944C10.4407 21.2984 10.6932 21.5509 10.9972 21.7264C11.3012 21.9019 11.6461 21.9943 11.9971 21.9943C12.3482 21.9943 12.6931 21.9019 12.9971 21.7264C13.3011 21.5509 13.5536 21.2984 13.7291 20.9944" stroke="white" stroke-width="1.99947" stroke-linecap="round" stroke-linejoin="round"/>
<path d="M3.2612 15.322C3.1306 15.4651 3.04441 15.6432 3.01312 15.8344C2.98183 16.0256 3.00679 16.2218 3.08495 16.3991C3.16312 16.5764 3.29113 16.7272 3.45341 16.8331C3.61568 16.939 3.80524 16.9954 3.99901 16.9956H19.9948C20.1885 16.9956 20.3781 16.9394 20.5405 16.8337C20.7029 16.728 20.8311 16.5774 20.9094 16.4002C20.9878 16.223 21.013 16.0269 20.982 15.8357C20.9509 15.6444 20.865 15.4663 20.7346 15.323C19.405 13.9524 17.9953 12.4957 17.9953 7.99793C17.9953 6.40705 17.3633 4.88133 16.2384 3.75641C15.1135 2.63149 13.5878 1.99951 11.9969 1.99951C10.406 1.99951 8.8803 2.63149 7.75538 3.75641C6.63046 4.88133 5.99848 6.40705 5.99848 7.99793C5.99848 12.4957 4.58785 13.9524 3.2612 15.322Z" stroke="white" stroke-width="1.99947" stroke-linecap="round" stroke-linejoin="round"/>
</svg>
